<svg xmlns="http://www.w3.org/2000/svg" width="256" height="256" viewBox="0 0 256 256">
  <rect width="256" height="256" fill="#0c0d12"/>
  <g transform="translate(64.852, 232) scale(0.95527)" fill="#ffb300">
    <path d="M 71.492188 0 L 122.746094 0 C 125.683594 0 128.296875 -2.613281 128.296875 -5.550781 L 128.296875 -25.464844 C 128.296875 -28.402344 125.683594 -31.011719 122.746094 -31.011719 L 71.492188 -31.011719 C 68.554688 -31.011719 65.941406 -33.625 65.941406 -36.5625 L 65.941406 -118.828125 C 65.941406 -121.765625 68.554688 -124.378906 71.492188 -124.378906 L 122.746094 -124.378906 C 125.683594 -124.378906 128.296875 -126.988281 128.296875 -129.929688 L 128.296875 -149.839844 C 128.296875 -152.78125 125.683594 -155.390625 122.746094 -155.390625 L 71.492188 -155.390625 C 68.554688 -155.390625 65.941406 -158.003906 65.941406 -160.941406 L 65.941406 -212.195312 C 65.941406 -215.132812 63.332031 -217.742188 60.394531 -217.742188 L 40.480469 -217.742188 C 37.542969 -217.742188 34.929688 -215.132812 34.929688 -212.195312 L 34.929688 -160.941406 C 34.929688 -158.003906 32.320312 -155.390625 29.378906 -155.390625 L 9.46875 -155.390625 C 6.527344 -155.390625 3.917969 -152.78125 3.917969 -149.839844 L 3.917969 -129.929688 C 3.917969 -126.988281 6.527344 -124.378906 9.46875 -124.378906 L 29.378906 -124.378906 C 32.320312 -124.378906 34.929688 -121.765625 34.929688 -118.828125 L 34.929688 -36.5625 C 34.929688 -33.625 37.542969 -31.011719 40.480469 -31.011719 L 60.394531 -31.011719 C 63.332031 -31.011719 65.941406 -28.402344 65.941406 -25.464844 L 65.941406 -5.550781 C 65.941406 -2.613281 68.554688 0 71.492188 0 Z M 71.492188 0 "/>
  </g>
</svg>
