<svg xmlns="http://www.w3.org/2000/svg" xmlns:xlink="http://www.w3.org/1999/xlink" viewBox="341.9956 559.2951 731.417 225.742" preserveAspectRatio="xMidYMid meet" version="1.0"><defs><g/><clipPath id="1bdb0e4b62"><rect x="0" width="734" y="0" height="426"/></clipPath></defs><g transform="matrix(1, 0, 0, 1, 341, 448)"><g><g fill="#ffb300" fill-opacity="1"><g transform="translate(1.077665, 333.037292)"><g><path d="M 71.492188 0 L 122.746094 0 C 125.683594 0 128.296875 -2.613281 128.296875 -5.550781 L 128.296875 -25.464844 C 128.296875 -28.402344 125.683594 -31.011719 122.746094 -31.011719 L 71.492188 -31.011719 C 68.554688 -31.011719 65.941406 -33.625 65.941406 -36.5625 L 65.941406 -118.828125 C 65.941406 -121.765625 68.554688 -124.378906 71.492188 -124.378906 L 122.746094 -124.378906 C 125.683594 -124.378906 128.296875 -126.988281 128.296875 -129.929688 L 128.296875 -149.839844 C 128.296875 -152.78125 125.683594 -155.390625 122.746094 -155.390625 L 71.492188 -155.390625 C 68.554688 -155.390625 65.941406 -158.003906 65.941406 -160.941406 L 65.941406 -212.195312 C 65.941406 -215.132812 63.332031 -217.742188 60.394531 -217.742188 L 40.480469 -217.742188 C 37.542969 -217.742188 34.929688 -215.132812 34.929688 -212.195312 L 34.929688 -160.941406 C 34.929688 -158.003906 32.320312 -155.390625 29.378906 -155.390625 L 9.46875 -155.390625 C 6.527344 -155.390625 3.917969 -152.78125 3.917969 -149.839844 L 3.917969 -129.929688 C 3.917969 -126.988281 6.527344 -124.378906 9.46875 -124.378906 L 29.378906 -124.378906 C 32.320312 -124.378906 34.929688 -121.765625 34.929688 -118.828125 L 34.929688 -36.5625 C 34.929688 -33.625 37.542969 -31.011719 40.480469 -31.011719 L 60.394531 -31.011719 C 63.332031 -31.011719 65.941406 -28.402344 65.941406 -25.464844 L 65.941406 -5.550781 C 65.941406 -2.613281 68.554688 0 71.492188 0 Z M 71.492188 0 "/></g></g></g><g fill="#ffb300" fill-opacity="1"><g transform="translate(133.290416, 333.037292)"><g><path d="M 9.46875 0 L 29.378906 0 C 32.320312 0 34.929688 -2.613281 34.929688 -5.550781 L 34.929688 -118.828125 C 34.929688 -121.765625 37.542969 -124.378906 40.480469 -124.378906 L 91.734375 -124.378906 C 94.671875 -124.378906 97.28125 -121.765625 97.28125 -118.828125 L 97.28125 -5.550781 C 97.28125 -2.613281 99.894531 0 102.832031 0 L 122.746094 0 C 125.683594 0 128.296875 -2.613281 128.296875 -5.550781 L 128.296875 -118.828125 C 128.296875 -121.765625 125.683594 -124.378906 122.746094 -124.378906 L 102.832031 -124.378906 C 99.894531 -124.378906 97.28125 -126.988281 97.28125 -129.929688 L 97.28125 -149.839844 C 97.28125 -152.78125 94.671875 -155.390625 91.734375 -155.390625 L 40.480469 -155.390625 C 37.542969 -155.390625 34.929688 -158.003906 34.929688 -160.941406 L 34.929688 -212.195312 C 34.929688 -215.132812 32.320312 -217.742188 29.378906 -217.742188 L 9.46875 -217.742188 C 6.527344 -217.742188 3.917969 -215.132812 3.917969 -212.195312 L 3.917969 -5.550781 C 3.917969 -2.613281 6.527344 0 9.46875 0 Z M 9.46875 0 "/></g></g></g><g fill="#ffb300" fill-opacity="1"><g transform="translate(265.503166, 333.037292)"><g><path d="M 40.480469 0 L 122.746094 0 C 125.683594 0 128.296875 -2.613281 128.296875 -5.550781 L 128.296875 -25.464844 C 128.296875 -28.402344 125.683594 -31.011719 122.746094 -31.011719 L 40.480469 -31.011719 C 37.542969 -31.011719 34.929688 -33.625 34.929688 -36.5625 L 34.929688 -56.476562 C 34.929688 -59.414062 37.542969 -62.027344 40.480469 -62.027344 L 122.746094 -62.027344 C 125.683594 -62.027344 128.296875 -64.636719 128.296875 -67.574219 L 128.296875 -118.828125 C 128.296875 -121.765625 125.683594 -124.378906 122.746094 -124.378906 L 102.832031 -124.378906 C 99.894531 -124.378906 97.28125 -126.988281 97.28125 -129.929688 L 97.28125 -149.839844 C 97.28125 -152.78125 94.671875 -155.390625 91.734375 -155.390625 L 40.480469 -155.390625 C 37.542969 -155.390625 34.929688 -152.78125 34.929688 -149.839844 L 34.929688 -129.929688 C 34.929688 -126.988281 32.320312 -124.378906 29.378906 -124.378906 L 9.46875 -124.378906 C 6.527344 -124.378906 3.917969 -121.765625 3.917969 -118.828125 L 3.917969 -36.5625 C 3.917969 -33.625 6.527344 -31.011719 9.46875 -31.011719 L 29.378906 -31.011719 C 32.320312 -31.011719 34.929688 -28.402344 34.929688 -25.464844 L 34.929688 -5.550781 C 34.929688 -2.613281 37.542969 0 40.480469 0 Z M 34.929688 -98.914062 L 34.929688 -118.828125 C 34.929688 -121.765625 37.542969 -124.378906 40.480469 -124.378906 L 91.734375 -124.378906 C 94.671875 -124.378906 97.28125 -121.765625 97.28125 -118.828125 L 97.28125 -98.914062 C 97.28125 -95.976562 94.671875 -93.363281 91.734375 -93.363281 L 40.480469 -93.363281 C 37.542969 -93.363281 34.929688 -95.976562 34.929688 -98.914062 Z M 34.929688 -98.914062 "/></g></g></g><g fill="#ffb300" fill-opacity="1"><g transform="translate(397.715904, 333.037292)"><g><path d="M 9.46875 0 L 29.378906 0 C 32.320312 0 34.929688 -2.613281 34.929688 -5.550781 L 34.929688 -118.828125 C 34.929688 -121.765625 37.542969 -124.378906 40.480469 -124.378906 L 91.734375 -124.378906 C 94.671875 -124.378906 97.28125 -126.988281 97.28125 -129.929688 L 97.28125 -149.839844 C 97.28125 -152.78125 94.671875 -155.390625 91.734375 -155.390625 L 40.480469 -155.390625 C 37.542969 -155.390625 34.929688 -152.78125 34.929688 -149.839844 L 34.929688 -129.929688 C 34.929688 -126.988281 32.320312 -124.378906 29.378906 -124.378906 L 9.46875 -124.378906 C 6.527344 -124.378906 3.917969 -121.765625 3.917969 -118.828125 L 3.917969 -5.550781 C 3.917969 -2.613281 6.527344 0 9.46875 0 Z M 9.46875 0 "/></g></g></g><g fill="#ffb300" fill-opacity="1"><g transform="translate(498.915808, 333.037292)"><g><path d="M 9.46875 0 L 29.378906 0 C 32.320312 0 34.929688 -2.613281 34.929688 -5.550781 L 34.929688 -118.828125 C 34.929688 -121.765625 37.542969 -124.378906 40.480469 -124.378906 L 91.734375 -124.378906 C 94.671875 -124.378906 97.28125 -126.988281 97.28125 -129.929688 L 97.28125 -149.839844 C 97.28125 -152.78125 94.671875 -155.390625 91.734375 -155.390625 L 40.480469 -155.390625 C 37.542969 -155.390625 34.929688 -152.78125 34.929688 -149.839844 L 34.929688 -129.929688 C 34.929688 -126.988281 32.320312 -124.378906 29.378906 -124.378906 L 9.46875 -124.378906 C 6.527344 -124.378906 3.917969 -121.765625 3.917969 -118.828125 L 3.917969 -5.550781 C 3.917969 -2.613281 6.527344 0 9.46875 0 Z M 9.46875 0 "/></g></g></g><g fill="#ffb300" fill-opacity="1"><g transform="translate(600.115711, 333.037292)"><g><path d="M 9.46875 -31.011719 L 29.378906 -31.011719 C 32.320312 -31.011719 34.929688 -28.402344 34.929688 -25.464844 L 34.929688 -5.550781 C 34.929688 -2.613281 37.542969 0 40.480469 0 L 122.746094 0 C 125.683594 0 128.296875 -2.613281 128.296875 -5.550781 L 128.296875 -118.828125 C 128.296875 -121.765625 125.683594 -124.378906 122.746094 -124.378906 L 102.832031 -124.378906 C 99.894531 -124.378906 97.28125 -126.988281 97.28125 -129.929688 L 97.28125 -149.839844 C 97.28125 -152.78125 94.671875 -155.390625 91.734375 -155.390625 L 9.46875 -155.390625 C 6.527344 -155.390625 3.917969 -152.78125 3.917969 -149.839844 L 3.917969 -129.929688 C 3.917969 -126.988281 6.527344 -124.378906 9.46875 -124.378906 L 91.734375 -124.378906 C 94.671875 -124.378906 97.28125 -121.765625 97.28125 -118.828125 L 97.28125 -98.914062 C 97.28125 -95.976562 94.671875 -93.363281 91.734375 -93.363281 L 9.46875 -93.363281 C 6.527344 -93.363281 3.917969 -90.753906 3.917969 -87.816406 L 3.917969 -36.5625 C 3.917969 -33.625 6.527344 -31.011719 9.46875 -31.011719 Z M 34.929688 -36.5625 L 34.929688 -56.476562 C 34.929688 -59.414062 37.542969 -62.027344 40.480469 -62.027344 L 91.734375 -62.027344 C 94.671875 -62.027344 97.28125 -59.414062 97.28125 -56.476562 L 97.28125 -36.5625 C 97.28125 -33.625 94.671875 -31.011719 91.734375 -31.011719 L 40.480469 -31.011719 C 37.542969 -31.011719 34.929688 -33.625 34.929688 -36.5625 Z M 34.929688 -36.5625 "/></g></g></g></g></g></svg>